# xmcd CD database file
#
# Track frame offsets:
#	150
#	22034
#	43077
#	61882
#	73997
#	94722
#	106968
#	135341
#	148751
#	166118
#	178870
#
# Disc length: 2763 seconds
#
# Revision: 0
# Processed by: cddbd v1.5.2PL0 Copyright (c) Steve Scherf et al.
# Submitted via: CDex 1.51
#
DISCID=9a0ac90b
DTITLE=Romeo and Lockwood - Ladies Love Country
DYEAR=2008
DGENRE=Country
TTITLE0=Romeo and Lockwood - Oh Heartache
TTITLE1=Romeo and Lockwood - If He Calls Tonight
TTITLE2=Romeo and Lockwood - Nevada Skies
TTITLE3=Romeo and Lockwood - The Ladies Love Country
TTITLE4=Romeo and Lockwood - I'm Just Your Wife
TTITLE5=Romeo and Lockwood - Country Boys
TTITLE6=Romeo and Lockwood - Flowers From The Heart
TTITLE7=Romeo and Lockwood - Just A Little You
TTITLE8=Romeo and Lockwood - Mr. Jones
TTITLE9=Romeo and Lockwood - Finger Pickin' Good
TTITLE10=Romeo and Lockwood - You Are Never Alone
EXTD=YEAR: 2008
EXTT0=
EXTT1=
EXTT2=
EXTT3=
EXTT4=
EXTT5=
EXTT6=
EXTT7=
EXTT8=
EXTT9=
EXTT10=
PLAYORDER=
